<svg width="480" height="358" viewBox="0 0 480 358" fill="none" xmlns="http://www.w3.org/2000/svg">
<path d="M340.527 39.7857H410.248C413.907 39.7857 416.313 43.6053 414.733 46.9063L310.765 264.096C308.957 267.874 303.574 267.861 301.784 264.074L180.994 8.54348C178.528 3.32717 173.332 0.000286978 167.563 0.000264661L9.15131 0.000165345C5.96607 0.000185025 2.30178 0.783977 0.897583 4.97318C-0.506621 9.16239 -0.0722434 12.3772 0.897682 14.9196C3.00092 19.6413 118.186 263.896 158.348 349.052C163.765 360.538 180.06 360.269 185.333 348.717L221.157 270.242C223.075 266.039 222.939 261.185 220.787 257.097L203.947 225.099C202.042 221.479 196.825 221.579 195.06 225.27L176.467 264.149C174.664 267.918 169.299 267.919 167.495 264.151L63.5014 46.9063C61.921 43.6053 64.3269 39.7857 67.9865 39.7857H137.651C143.43 39.7857 148.689 43.1234 151.15 48.3526L292.728 349.224C298.108 360.656 314.378 360.652 319.756 349.22C350.127 284.655 425.359 125.162 479.091 14.9197C480.303 12.433 480.303 7.45977 479.091 4.97333C476.956 0.592818 474.055 -1.35746e-05 470.357 2.33121e-10L310.782 0.000296173C304.971 0.000300722 299.715 3.37434 297.272 8.64672L257.137 95.2568C255.183 99.4751 255.306 104.364 257.472 108.479L274.282 140.421C276.189 144.042 281.408 143.94 283.171 140.247L327.062 48.2789C329.539 43.0899 334.777 39.7857 340.527 39.7857Z" fill="white"/>
</svg>
